<svg width="23" height="20" viewBox="0 0 23 20" fill="none" xmlns="http://www.w3.org/2000/svg">
<path d="M4.00439 7.5C4.26961 7.5 4.52396 7.60536 4.7115 7.79289C4.89904 7.98043 5.00439 8.23478 5.00439 8.5C6.57554 8.49769 8.10138 9.02627 9.33439 10H11.5044C12.8374 10 14.0344 10.58 14.8584 11.5H18.0044C18.9497 11.4997 19.8756 11.7674 20.6749 12.272C21.4742 12.7767 22.1141 13.4975 22.5204 14.351C20.1554 17.472 16.3264 19.5 12.0044 19.5C9.21439 19.5 6.85439 18.897 4.94439 17.842C4.87444 18.0351 4.74663 18.2018 4.57841 18.3196C4.41019 18.4374 4.20974 18.5003 4.00439 18.5H1.00439C0.739178 18.5 0.484824 18.3946 0.297288 18.2071C0.109751 18.0196 0.00439453 17.7652 0.00439453 17.5V8.5C0.00439453 8.23478 0.109751 7.98043 0.297288 7.79289C0.484824 7.60536 0.739178 7.5 1.00439 7.5H4.00439ZM5.00539 10.5L5.00439 15.522L5.04939 15.554C6.84439 16.814 9.18239 17.5 12.0044 17.5C15.0084 17.5 17.8034 16.344 19.8394 14.37L19.9724 14.237L19.8524 14.137C19.3802 13.7672 18.8078 13.5477 18.2094 13.507L18.0044 13.5H15.8934C15.9654 13.822 16.0044 14.156 16.0044 14.5V15.5H7.00439V13.5L13.7944 13.499L13.7604 13.421C13.5688 13.0205 13.274 12.6783 12.9063 12.4295C12.5387 12.1806 12.1114 12.0341 11.6684 12.005L11.5044 12H8.57439C8.10971 11.5247 7.55467 11.1472 6.94192 10.8896C6.32917 10.632 5.67109 10.4995 5.00639 10.5H5.00539ZM3.00439 9.5H2.00439V16.5H3.00439V9.5ZM17.0044 3.5C17.8 3.5 18.5631 3.81607 19.1257 4.37868C19.6883 4.94129 20.0044 5.70435 20.0044 6.5C20.0044 7.29565 19.6883 8.05871 19.1257 8.62132C18.5631 9.18393 17.8 9.5 17.0044 9.5C16.2087 9.5 15.4457 9.18393 14.8831 8.62132C14.3205 8.05871 14.0044 7.29565 14.0044 6.5C14.0044 5.70435 14.3205 4.94129 14.8831 4.37868C15.4457 3.81607 16.2087 3.5 17.0044 3.5ZM17.0044 5.5C16.7392 5.5 16.4848 5.60536 16.2973 5.79289C16.1098 5.98043 16.0044 6.23478 16.0044 6.5C16.0044 6.76522 16.1098 7.01957 16.2973 7.20711C16.4848 7.39464 16.7392 7.5 17.0044 7.5C17.2696 7.5 17.524 7.39464 17.7115 7.20711C17.899 7.01957 18.0044 6.76522 18.0044 6.5C18.0044 6.23478 17.899 5.98043 17.7115 5.79289C17.524 5.60536 17.2696 5.5 17.0044 5.5ZM10.0044 0.5C10.8 0.5 11.5631 0.816071 12.1257 1.37868C12.6883 1.94129 13.0044 2.70435 13.0044 3.5C13.0044 4.29565 12.6883 5.05871 12.1257 5.62132C11.5631 6.18393 10.8 6.5 10.0044 6.5C9.20875 6.5 8.44568 6.18393 7.88307 5.62132C7.32046 5.05871 7.00439 4.29565 7.00439 3.5C7.00439 2.70435 7.32046 1.94129 7.88307 1.37868C8.44568 0.816071 9.20875 0.5 10.0044 0.5ZM10.0044 2.5C9.73918 2.5 9.48482 2.60536 9.29729 2.79289C9.10975 2.98043 9.00439 3.23478 9.00439 3.5C9.00439 3.76522 9.10975 4.01957 9.29729 4.20711C9.48482 4.39464 9.73918 4.5 10.0044 4.5C10.2696 4.5 10.524 4.39464 10.7115 4.20711C10.899 4.01957 11.0044 3.76522 11.0044 3.5C11.0044 3.23478 10.899 2.98043 10.7115 2.79289C10.524 2.60536 10.2696 2.5 10.0044 2.5Z" fill="#009300"/>
</svg>
